<svg xmlns="http://www.w3.org/2000/svg" viewBox="0 0 42.46 39.32"><defs><style>.cls-1{font-size:25.18px;fill:#444;font-family:Montserrat-Bold, Montserrat;font-weight:700;}.cls-2{fill:#ffd10d;}</style></defs><title>blackAsset 1</title><g id="Layer_2" data-name="Layer 2"><g id="Layer_1-2" data-name="Layer 1"><text class="cls-1" transform="translate(0 33.03)">CM</text><path class="cls-2" d="M8.54,11.2c-1.6-.48-3.09-.9-4.55-1.43a1.16,1.16,0,0,1-.51-1C4.33,2.16,10-1.16,15.23.37a74,74,0,0,1,7.26,3.06,29.68,29.68,0,0,0,4.94,1.76c3.19.69,5.13-.61,6-3.72.06-.19.14-.37.27-.74,1.52.4,3,.78,4.55,1.24.17.06.32.6.29.89-.53,4.89-3.59,8-8.46,8.31a10.94,10.94,0,0,1-4.5-.93c-2.63-1-5.16-2.34-7.74-3.5a12.63,12.63,0,0,0-2.16-.69A5.17,5.17,0,0,0,9.48,9C9.14,9.67,8.88,10.39,8.54,11.2Z"/></g></g></svg>